<svg xmlns="http://www.w3.org/2000/svg" viewBox="40 16 432.00006103515625 480" x="0" y="0" class="icon-icon-0" data-fill-palette-color="accent" id="icon-0">
    <path d="M464 104V83.313a35.048 35.048 0 0 0-8-22.389V24a8 8 0 0 0-8-8H424a8 8 0 0 0-8 8V60.924a35.048 35.048 0 0 0-8 22.389V104H392V86.624A24.038 24.038 0 0 0 408 64V40a8 8 0 0 0-8-8H336a8 8 0 0 0-8 8V64a24.038 24.038 0 0 0 16 22.624V104H328a8 8 0 0 0-7.155 11.578 65.511 65.511 0 0 0 38.916 33.347l-4.082 4.082-40.603 13.535-36.566-51.191a8 8 0 0 0-3.261-2.662L215.411 86.095A32.02 32.02 0 0 0 216 80V24a8 8 0 0 0-8-8H184a8 8 0 0 0-4.438 1.344l-24 16A7.999 7.999 0 0 0 152 40V80a32.02 32.02 0 0 0 0.589 6.095L92.751 112.689a7.996 7.996 0 0 0-3.407 2.874l-48 71.999A8.002 8.002 0 0 0 40 192v40a8.03 8.03 0 0 0 0.155 1.569l16 80A8 8 0 0 0 64 320H88a8 8 0 0 0 8-8V226.667l12.734-16.979 10.894 38.13-7.217 21.652A8.002 8.002 0 0 0 112 272V488a8 8 0 0 0 8 8h32a7.999 7.999 0 0 0 7.907-6.783L174.863 392h18.274l14.956 97.217A7.999 7.999 0 0 0 216 496h32a8 8 0 0 0 8-8V272a8.002 8.002 0 0 0-0.411-2.53l-7.217-21.652 12.018-42.061 30.612 24.49A8 8 0 0 0 296 232h24a8.003 8.003 0 0 0 4.65-1.49l56-40c0.163-0.117 0.315-0.243 0.467-0.37l0.005 0.006 48-40c0.166-0.138 0.305-0.297 0.457-0.446a65.487 65.487 0 0 0 41.576-34.122A8 8 0 0 0 464 104ZM432 32h8v8h-8Zm-8 51.313a19.184 19.184 0 0 1 5.657-13.656A7.999 7.999 0 0 0 432 64V56h8v8a7.999 7.999 0 0 0 2.343 5.657A19.184 19.184 0 0 1 448 83.313V104H424ZM392 64a8 8 0 0 1-16 0V48h16ZM344 48h16V64a8 8 0 0 1-16 0Zm16 38.624a24.016 24.016 0 0 0 8-4.755 24.016 24.016 0 0 0 8 4.755V104H360ZM248 190.878l-15.692 54.924a8.004 8.004 0 0 0 0.103 4.728L240 273.298V376H128V273.298l7.589-22.768a8.004 8.004 0 0 0 0.103-4.728L120 190.878V118.088l17.348-7.711 9.07 36.28a38.739 38.739 0 0 0 75.164 0l9.07-36.279L248 118.088ZM168 80V64h32V80a16 16 0 0 1-32 0Zm47.809 23.781l-9.749 38.995A22.692 22.692 0 0 1 192 158.537V110.987a32.056 32.056 0 0 0 16.514-10.448ZM168 44.281L186.422 32H200V48H168Zm8 66.706v47.55a22.692 22.692 0 0 1-14.06-15.761l-9.749-38.995 7.295-3.242A32.056 32.056 0 0 0 176 110.987ZM70.559 304l-4.8-24H80v24ZM81.6 219.2A8.001 8.001 0 0 0 80 224v40H62.558L56 231.208V194.422l45.369-68.054L104 125.199v64.135ZM145.137 480H128V392h30.675ZM240 480H222.863l-13.538-88H240Zm77.437-264H298.806L264 188.155V125.199l2.758 1.226 38.732 54.224a8 8 0 0 0 9.04 2.941l42.203-14.069 8.314 12.471Zm60.281-43.845l-7.424-11.136L379.314 152h22.59ZM412.223 136H379.777A49.593 49.593 0 0 1 343.126 120H448.874A49.593 49.593 0 0 1 412.223 136Z" fill="#000"/>
</svg>
